<mxfile host="app.diagrams.net" agent="Mozilla/5.0 (Macintosh; Intel Mac OS X 10_15_7) AppleWebKit/537.36 (KHTML, like Gecko) Chrome/128.0.0.0 Safari/537.36" version="24.8.6">
  <diagram name="Page-1" id="F0x61UBy74klwsJbcUI1">
    <mxGraphModel dx="1172" dy="470" grid="1" gridSize="10" guides="1" tooltips="1" connect="1" arrows="1" fold="1" page="1" pageScale="1" pageWidth="827" pageHeight="1169" math="0" shadow="0">
      <root>
        <mxCell id="0" />
        <mxCell id="1" parent="0" />
        <mxCell id="L8NSSJwV17tFGSihtROY-1" value="ssa_project" style="rounded=0;whiteSpace=wrap;html=1;" parent="1" vertex="1">
          <mxGeometry x="870" y="80" width="120" height="60" as="geometry" />
        </mxCell>
        <mxCell id="L8NSSJwV17tFGSihtROY-7" value="Users" style="rounded=0;whiteSpace=wrap;html=1;" parent="1" vertex="1">
          <mxGeometry x="1208.5" y="171.57" width="120" height="60" as="geometry" />
        </mxCell>
        <mxCell id="L8NSSJwV17tFGSihtROY-8" value="ChipIn" style="rounded=0;whiteSpace=wrap;html=1;" parent="1" vertex="1">
          <mxGeometry x="550" y="150" width="120" height="60" as="geometry" />
        </mxCell>
        <mxCell id="L8NSSJwV17tFGSihtROY-9" value="Registeration" style="rounded=0;whiteSpace=wrap;html=1;" parent="1" vertex="1">
          <mxGeometry x="1160" y="291.57" width="120" height="60" as="geometry" />
        </mxCell>
        <mxCell id="L8NSSJwV17tFGSihtROY-10" value="Authentication" style="rounded=0;whiteSpace=wrap;html=1;" parent="1" vertex="1">
          <mxGeometry x="1310" y="290" width="120" height="60" as="geometry" />
        </mxCell>
        <mxCell id="L8NSSJwV17tFGSihtROY-11" value="" style="endArrow=none;html=1;rounded=0;entryX=0.5;entryY=1;entryDx=0;entryDy=0;" parent="1" target="L8NSSJwV17tFGSihtROY-8" edge="1">
          <mxGeometry width="50" height="50" relative="1" as="geometry">
            <mxPoint x="530" y="260" as="sourcePoint" />
            <mxPoint x="510" y="210" as="targetPoint" />
          </mxGeometry>
        </mxCell>
        <mxCell id="L8NSSJwV17tFGSihtROY-12" value="Groups" style="rounded=0;whiteSpace=wrap;html=1;" parent="1" vertex="1">
          <mxGeometry x="470" y="260.07" width="120" height="60" as="geometry" />
        </mxCell>
        <mxCell id="L8NSSJwV17tFGSihtROY-13" value="form validation" style="rounded=0;whiteSpace=wrap;html=1;" parent="1" vertex="1">
          <mxGeometry x="1050" y="428.5" width="120" height="60" as="geometry" />
        </mxCell>
        <mxCell id="L8NSSJwV17tFGSihtROY-14" value="profile creation" style="rounded=0;whiteSpace=wrap;html=1;" parent="1" vertex="1">
          <mxGeometry x="1220" y="428.57" width="120" height="60" as="geometry" />
        </mxCell>
        <mxCell id="L8NSSJwV17tFGSihtROY-15" value="" style="endArrow=none;html=1;rounded=0;entryX=0.402;entryY=1.003;entryDx=0;entryDy=0;entryPerimeter=0;exitX=0.58;exitY=-0.011;exitDx=0;exitDy=0;exitPerimeter=0;" parent="1" target="L8NSSJwV17tFGSihtROY-9" edge="1">
          <mxGeometry width="50" height="50" relative="1" as="geometry">
            <mxPoint x="1129.6" y="427.9099999999999" as="sourcePoint" />
            <mxPoint x="1190" y="343.64" as="targetPoint" />
          </mxGeometry>
        </mxCell>
        <mxCell id="L8NSSJwV17tFGSihtROY-16" value="" style="endArrow=none;html=1;rounded=0;exitX=0.5;exitY=0;exitDx=0;exitDy=0;" parent="1" source="L8NSSJwV17tFGSihtROY-14" edge="1">
          <mxGeometry width="50" height="50" relative="1" as="geometry">
            <mxPoint x="1277.56" y="394.17" as="sourcePoint" />
            <mxPoint x="1210" y="351.57" as="targetPoint" />
          </mxGeometry>
        </mxCell>
        <mxCell id="L8NSSJwV17tFGSihtROY-21" value="Group Creation" style="rounded=0;whiteSpace=wrap;html=1;" parent="1" vertex="1">
          <mxGeometry x="400" y="370" width="120" height="60" as="geometry" />
        </mxCell>
        <mxCell id="L8NSSJwV17tFGSihtROY-22" value="Join Requests" style="rounded=0;whiteSpace=wrap;html=1;" parent="1" vertex="1">
          <mxGeometry x="550" y="370.14" width="120" height="60" as="geometry" />
        </mxCell>
        <mxCell id="L8NSSJwV17tFGSihtROY-28" value="" style="endArrow=none;html=1;rounded=0;entryX=0.399;entryY=1.01;entryDx=0;entryDy=0;entryPerimeter=0;" parent="1" source="L8NSSJwV17tFGSihtROY-31" target="L8NSSJwV17tFGSihtROY-21" edge="1">
          <mxGeometry width="50" height="50" relative="1" as="geometry">
            <mxPoint x="380" y="490" as="sourcePoint" />
            <mxPoint x="430" y="430" as="targetPoint" />
          </mxGeometry>
        </mxCell>
        <mxCell id="L8NSSJwV17tFGSihtROY-31" value="Invite Users" style="rounded=0;whiteSpace=wrap;html=1;" parent="1" vertex="1">
          <mxGeometry x="414" y="480" width="120" height="60" as="geometry" />
        </mxCell>
        <mxCell id="L8NSSJwV17tFGSihtROY-32" value="" style="endArrow=none;html=1;rounded=0;entryX=0.399;entryY=1.01;entryDx=0;entryDy=0;entryPerimeter=0;" parent="1" source="L8NSSJwV17tFGSihtROY-33" edge="1">
          <mxGeometry width="50" height="50" relative="1" as="geometry">
            <mxPoint x="610" y="470" as="sourcePoint" />
            <mxPoint x="605" y="430" as="targetPoint" />
          </mxGeometry>
        </mxCell>
        <mxCell id="L8NSSJwV17tFGSihtROY-33" value="Vote" style="rounded=0;whiteSpace=wrap;html=1;" parent="1" vertex="1">
          <mxGeometry x="560" y="480" width="120" height="60" as="geometry" />
        </mxCell>
        <mxCell id="L8NSSJwV17tFGSihtROY-18" value="" style="endArrow=none;html=1;rounded=0;" parent="1" edge="1">
          <mxGeometry width="50" height="50" relative="1" as="geometry">
            <mxPoint x="480" y="370.14" as="sourcePoint" />
            <mxPoint x="530" y="320.14" as="targetPoint" />
          </mxGeometry>
        </mxCell>
        <mxCell id="L8NSSJwV17tFGSihtROY-19" value="" style="endArrow=none;html=1;rounded=0;" parent="1" edge="1">
          <mxGeometry width="50" height="50" relative="1" as="geometry">
            <mxPoint x="530" y="320.14" as="sourcePoint" />
            <mxPoint x="580" y="370.14" as="targetPoint" />
          </mxGeometry>
        </mxCell>
        <mxCell id="L8NSSJwV17tFGSihtROY-37" value="" style="group;rotation=15;" parent="1" vertex="1" connectable="0">
          <mxGeometry x="1140" y="376.57" width="17" height="17" as="geometry" />
        </mxCell>
        <mxCell id="L8NSSJwV17tFGSihtROY-35" value="" style="ellipse;whiteSpace=wrap;html=1;aspect=fixed;fillColor=#000000;rotation=15;" parent="L8NSSJwV17tFGSihtROY-37" vertex="1">
          <mxGeometry x="-1" y="6" width="10" height="10" as="geometry" />
        </mxCell>
        <mxCell id="L8NSSJwV17tFGSihtROY-36" value="" style="endArrow=classic;html=1;rounded=0;exitX=1;exitY=0;exitDx=0;exitDy=0;" parent="L8NSSJwV17tFGSihtROY-37" edge="1">
          <mxGeometry width="50" height="50" relative="1" as="geometry">
            <mxPoint x="5" y="11" as="sourcePoint" />
            <mxPoint x="19" y="2" as="targetPoint" />
          </mxGeometry>
        </mxCell>
        <mxCell id="L8NSSJwV17tFGSihtROY-40" value="" style="group;rotation=0;" parent="1" vertex="1" connectable="0">
          <mxGeometry x="470" y="340" width="17" height="17" as="geometry" />
        </mxCell>
        <mxCell id="L8NSSJwV17tFGSihtROY-41" value="" style="ellipse;whiteSpace=wrap;html=1;aspect=fixed;fillColor=#000000;rotation=0;" parent="L8NSSJwV17tFGSihtROY-40" vertex="1">
          <mxGeometry y="7" width="10" height="10" as="geometry" />
        </mxCell>
        <mxCell id="L8NSSJwV17tFGSihtROY-42" value="" style="endArrow=classic;html=1;rounded=0;exitX=1;exitY=0;exitDx=0;exitDy=0;" parent="L8NSSJwV17tFGSihtROY-40" edge="1">
          <mxGeometry width="50" height="50" relative="1" as="geometry">
            <mxPoint x="6" y="12" as="sourcePoint" />
            <mxPoint x="17" as="targetPoint" />
          </mxGeometry>
        </mxCell>
        <mxCell id="L8NSSJwV17tFGSihtROY-52" value="" style="group" parent="1" vertex="1" connectable="0">
          <mxGeometry x="510" y="340" width="17" height="17" as="geometry" />
        </mxCell>
        <mxCell id="L8NSSJwV17tFGSihtROY-51" value="" style="endArrow=classic;html=1;rounded=0;exitX=1;exitY=0;exitDx=0;exitDy=0;" parent="L8NSSJwV17tFGSihtROY-52" edge="1">
          <mxGeometry width="50" height="50" relative="1" as="geometry">
            <mxPoint x="6" y="12" as="sourcePoint" />
            <mxPoint x="17" as="targetPoint" />
          </mxGeometry>
        </mxCell>
        <mxCell id="L8NSSJwV17tFGSihtROY-50" value="" style="ellipse;whiteSpace=wrap;html=1;aspect=fixed;fillColor=#FFFFFF;rotation=0;strokeColor=#000000;" parent="L8NSSJwV17tFGSihtROY-52" vertex="1">
          <mxGeometry y="7" width="10" height="10" as="geometry" />
        </mxCell>
        <mxCell id="L8NSSJwV17tFGSihtROY-53" value="" style="group;rotation=10;" parent="1" vertex="1" connectable="0">
          <mxGeometry x="1180" y="379.57" width="17" height="17" as="geometry" />
        </mxCell>
        <mxCell id="L8NSSJwV17tFGSihtROY-54" value="" style="endArrow=classic;html=1;rounded=0;exitX=1;exitY=0;exitDx=0;exitDy=0;" parent="L8NSSJwV17tFGSihtROY-53" edge="1">
          <mxGeometry width="50" height="50" relative="1" as="geometry">
            <mxPoint x="5" y="11" as="sourcePoint" />
            <mxPoint x="18" y="1" as="targetPoint" />
          </mxGeometry>
        </mxCell>
        <mxCell id="L8NSSJwV17tFGSihtROY-55" value="" style="ellipse;whiteSpace=wrap;html=1;aspect=fixed;fillColor=#FFFFFF;rotation=10;strokeColor=#000000;" parent="L8NSSJwV17tFGSihtROY-53" vertex="1">
          <mxGeometry x="-1" y="6" width="10" height="10" as="geometry" />
        </mxCell>
        <mxCell id="L8NSSJwV17tFGSihtROY-57" value="" style="group;rotation=-65;" parent="1" vertex="1" connectable="0">
          <mxGeometry x="440" y="450" width="17" height="17" as="geometry" />
        </mxCell>
        <mxCell id="L8NSSJwV17tFGSihtROY-58" value="" style="endArrow=classic;html=1;rounded=0;exitX=1;exitY=0;exitDx=0;exitDy=0;" parent="L8NSSJwV17tFGSihtROY-57" edge="1">
          <mxGeometry width="50" height="50" relative="1" as="geometry">
            <mxPoint x="11" y="12" as="sourcePoint" />
            <mxPoint x="5" y="-3" as="targetPoint" />
          </mxGeometry>
        </mxCell>
        <mxCell id="L8NSSJwV17tFGSihtROY-59" value="" style="ellipse;whiteSpace=wrap;html=1;aspect=fixed;fillColor=#FFFFFF;rotation=-65;strokeColor=#000000;" parent="L8NSSJwV17tFGSihtROY-57" vertex="1">
          <mxGeometry x="5" y="8" width="10" height="10" as="geometry" />
        </mxCell>
        <mxCell id="L8NSSJwV17tFGSihtROY-61" value="" style="group;rotation=120;" parent="1" vertex="1" connectable="0">
          <mxGeometry x="610" y="450" width="17" height="17" as="geometry" />
        </mxCell>
        <mxCell id="L8NSSJwV17tFGSihtROY-62" value="" style="endArrow=classic;html=1;rounded=0;exitX=1;exitY=0;exitDx=0;exitDy=0;" parent="L8NSSJwV17tFGSihtROY-61" edge="1">
          <mxGeometry width="50" height="50" relative="1" as="geometry">
            <mxPoint x="7" y="4" as="sourcePoint" />
            <mxPoint x="11" y="20" as="targetPoint" />
          </mxGeometry>
        </mxCell>
        <mxCell id="L8NSSJwV17tFGSihtROY-63" value="" style="ellipse;whiteSpace=wrap;html=1;aspect=fixed;fillColor=#FFFFFF;rotation=120;strokeColor=#000000;" parent="L8NSSJwV17tFGSihtROY-61" vertex="1">
          <mxGeometry x="3" y="-1" width="10" height="10" as="geometry" />
        </mxCell>
        <mxCell id="L8NSSJwV17tFGSihtROY-65" value="" style="group;rotation=90;" parent="1" vertex="1" connectable="0">
          <mxGeometry x="560" y="330" width="17" height="17" as="geometry" />
        </mxCell>
        <mxCell id="L8NSSJwV17tFGSihtROY-66" value="" style="endArrow=classic;html=1;rounded=0;exitX=1;exitY=0;exitDx=0;exitDy=0;" parent="L8NSSJwV17tFGSihtROY-65" edge="1">
          <mxGeometry width="50" height="50" relative="1" as="geometry">
            <mxPoint x="4" y="6" as="sourcePoint" />
            <mxPoint x="17" y="17" as="targetPoint" />
          </mxGeometry>
        </mxCell>
        <mxCell id="L8NSSJwV17tFGSihtROY-67" value="" style="ellipse;whiteSpace=wrap;html=1;aspect=fixed;fillColor=#FFFFFF;rotation=90;strokeColor=#000000;" parent="L8NSSJwV17tFGSihtROY-65" vertex="1">
          <mxGeometry width="10" height="10" as="geometry" />
        </mxCell>
        <mxCell id="L8NSSJwV17tFGSihtROY-92" value="&lt;font style=&quot;font-size: 6px;&quot;&gt;Valid login&lt;/font&gt;" style="text;html=1;align=center;verticalAlign=middle;whiteSpace=wrap;rounded=0;" parent="1" vertex="1">
          <mxGeometry x="1344" y="241.57" width="40" height="20" as="geometry" />
        </mxCell>
        <mxCell id="L8NSSJwV17tFGSihtROY-93" value="&lt;span style=&quot;font-size: 6px;&quot;&gt;Valid Form&lt;/span&gt;" style="text;html=1;align=center;verticalAlign=middle;whiteSpace=wrap;rounded=0;" parent="1" vertex="1">
          <mxGeometry x="1090" y="376.57" width="40" height="20" as="geometry" />
        </mxCell>
        <mxCell id="L8NSSJwV17tFGSihtROY-95" value="&lt;span style=&quot;font-size: 6px;&quot;&gt;Register Form&lt;/span&gt;" style="text;html=1;align=center;verticalAlign=middle;whiteSpace=wrap;rounded=0;" parent="1" vertex="1">
          <mxGeometry x="1168.5" y="391.71" width="40" height="20" as="geometry" />
        </mxCell>
        <mxCell id="L8NSSJwV17tFGSihtROY-96" value="&lt;font style=&quot;font-size: 6px;&quot;&gt;Group Form&lt;/font&gt;" style="text;html=1;align=center;verticalAlign=middle;whiteSpace=wrap;rounded=0;" parent="1" vertex="1">
          <mxGeometry x="430" y="335" width="40" height="20" as="geometry" />
        </mxCell>
        <mxCell id="L8NSSJwV17tFGSihtROY-98" value="&lt;font style=&quot;font-size: 6px;&quot;&gt;User Profiles&lt;/font&gt;" style="text;html=1;align=center;verticalAlign=middle;whiteSpace=wrap;rounded=0;" parent="1" vertex="1">
          <mxGeometry x="414" y="460" width="40" height="20" as="geometry" />
        </mxCell>
        <mxCell id="L8NSSJwV17tFGSihtROY-100" value="&lt;font style=&quot;font-size: 6px;&quot;&gt;User Profiles&lt;/font&gt;" style="text;html=1;align=center;verticalAlign=middle;whiteSpace=wrap;rounded=0;" parent="1" vertex="1">
          <mxGeometry x="627" y="440" width="40" height="20" as="geometry" />
        </mxCell>
        <mxCell id="L8NSSJwV17tFGSihtROY-101" value="&lt;font style=&quot;font-size: 6px;&quot;&gt;Group details&lt;/font&gt;" style="text;html=1;align=center;verticalAlign=middle;whiteSpace=wrap;rounded=0;" parent="1" vertex="1">
          <mxGeometry x="498.5" y="350" width="40" height="20" as="geometry" />
        </mxCell>
        <mxCell id="L8NSSJwV17tFGSihtROY-102" value="&lt;font style=&quot;font-size: 6px;&quot;&gt;User profiles&lt;/font&gt;" style="text;html=1;align=center;verticalAlign=middle;whiteSpace=wrap;rounded=0;" parent="1" vertex="1">
          <mxGeometry x="577" y="320.07" width="40" height="20" as="geometry" />
        </mxCell>
        <mxCell id="B_dzTYNz8ej_TZ3mgmEH-1" value="" style="endArrow=none;html=1;rounded=0;entryX=0.197;entryY=0.01;entryDx=0;entryDy=0;entryPerimeter=0;exitX=0.5;exitY=1;exitDx=0;exitDy=0;" edge="1" parent="1" source="L8NSSJwV17tFGSihtROY-8" target="B_dzTYNz8ej_TZ3mgmEH-2">
          <mxGeometry width="50" height="50" relative="1" as="geometry">
            <mxPoint x="577" y="210" as="sourcePoint" />
            <mxPoint x="670" y="260" as="targetPoint" />
          </mxGeometry>
        </mxCell>
        <mxCell id="B_dzTYNz8ej_TZ3mgmEH-2" value="Events" style="rounded=0;whiteSpace=wrap;html=1;" vertex="1" parent="1">
          <mxGeometry x="640" y="260.07" width="120" height="60" as="geometry" />
        </mxCell>
        <mxCell id="B_dzTYNz8ej_TZ3mgmEH-3" value="" style="endArrow=none;html=1;rounded=0;exitX=0.447;exitY=-0.033;exitDx=0;exitDy=0;exitPerimeter=0;entryX=0.5;entryY=1;entryDx=0;entryDy=0;" edge="1" parent="1" source="B_dzTYNz8ej_TZ3mgmEH-5" target="B_dzTYNz8ej_TZ3mgmEH-2">
          <mxGeometry width="50" height="50" relative="1" as="geometry">
            <mxPoint x="760.5" y="360" as="sourcePoint" />
            <mxPoint x="760" y="320.07" as="targetPoint" />
          </mxGeometry>
        </mxCell>
        <mxCell id="B_dzTYNz8ej_TZ3mgmEH-5" value="Event Creation" style="rounded=0;whiteSpace=wrap;html=1;" vertex="1" parent="1">
          <mxGeometry x="700" y="372" width="120" height="60" as="geometry" />
        </mxCell>
        <mxCell id="B_dzTYNz8ej_TZ3mgmEH-7" value="" style="endArrow=none;html=1;rounded=0;entryX=0.5;entryY=1;entryDx=0;entryDy=0;" edge="1" parent="1" target="B_dzTYNz8ej_TZ3mgmEH-2">
          <mxGeometry width="50" height="50" relative="1" as="geometry">
            <mxPoint x="870" y="370" as="sourcePoint" />
            <mxPoint x="760" y="320" as="targetPoint" />
          </mxGeometry>
        </mxCell>
        <mxCell id="B_dzTYNz8ej_TZ3mgmEH-8" value="Event Share" style="rounded=0;whiteSpace=wrap;html=1;" vertex="1" parent="1">
          <mxGeometry x="850" y="370" width="120" height="60" as="geometry" />
        </mxCell>
        <mxCell id="B_dzTYNz8ej_TZ3mgmEH-9" value="Event Status" style="whiteSpace=wrap;html=1;rounded=0;" vertex="1" parent="1">
          <mxGeometry x="700" y="480" width="120" height="60" as="geometry" />
        </mxCell>
        <mxCell id="B_dzTYNz8ej_TZ3mgmEH-11" value="" style="endArrow=none;html=1;rounded=0;exitX=0.467;exitY=-0.008;exitDx=0;exitDy=0;exitPerimeter=0;" edge="1" parent="1" source="B_dzTYNz8ej_TZ3mgmEH-9">
          <mxGeometry width="50" height="50" relative="1" as="geometry">
            <mxPoint x="750" y="481.93" as="sourcePoint" />
            <mxPoint x="756" y="432" as="targetPoint" />
          </mxGeometry>
        </mxCell>
        <mxCell id="B_dzTYNz8ej_TZ3mgmEH-12" value="" style="endArrow=none;html=1;rounded=0;entryX=0.426;entryY=0.994;entryDx=0;entryDy=0;entryPerimeter=0;exitX=0.536;exitY=-0.016;exitDx=0;exitDy=0;exitPerimeter=0;" edge="1" parent="1" source="B_dzTYNz8ej_TZ3mgmEH-13" target="L8NSSJwV17tFGSihtROY-7">
          <mxGeometry width="50" height="50" relative="1" as="geometry">
            <mxPoint x="1100" y="280" as="sourcePoint" />
            <mxPoint x="1180" y="241.57" as="targetPoint" />
          </mxGeometry>
        </mxCell>
        <mxCell id="B_dzTYNz8ej_TZ3mgmEH-13" value="Top Up Balance" style="rounded=0;whiteSpace=wrap;html=1;" vertex="1" parent="1">
          <mxGeometry x="1020" y="290" width="120" height="60" as="geometry" />
        </mxCell>
        <mxCell id="B_dzTYNz8ej_TZ3mgmEH-16" value="" style="group;rotation=-175;" vertex="1" connectable="0" parent="1">
          <mxGeometry x="1150" y="250" width="17" height="17" as="geometry" />
        </mxCell>
        <mxCell id="B_dzTYNz8ej_TZ3mgmEH-17" value="" style="ellipse;whiteSpace=wrap;html=1;aspect=fixed;fillColor=#000000;rotation=-175;" vertex="1" parent="B_dzTYNz8ej_TZ3mgmEH-16">
          <mxGeometry x="7" y="1" width="10" height="10" as="geometry" />
        </mxCell>
        <mxCell id="B_dzTYNz8ej_TZ3mgmEH-18" value="" style="endArrow=classic;html=1;rounded=0;" edge="1" parent="B_dzTYNz8ej_TZ3mgmEH-16" source="B_dzTYNz8ej_TZ3mgmEH-17">
          <mxGeometry width="50" height="50" relative="1" as="geometry">
            <mxPoint x="11" y="5" as="sourcePoint" />
            <mxPoint x="-1" y="16" as="targetPoint" />
          </mxGeometry>
        </mxCell>
        <mxCell id="B_dzTYNz8ej_TZ3mgmEH-21" value="&lt;font style=&quot;font-size: 6px;&quot;&gt;Balance&lt;/font&gt;" style="text;html=1;align=center;verticalAlign=middle;whiteSpace=wrap;rounded=0;" vertex="1" parent="1">
          <mxGeometry x="1110" y="248.5" width="40" height="20" as="geometry" />
        </mxCell>
        <mxCell id="B_dzTYNz8ej_TZ3mgmEH-22" value="" style="endArrow=classic;html=1;rounded=0;exitX=1;exitY=0;exitDx=0;exitDy=0;" edge="1" parent="1">
          <mxGeometry width="50" height="50" relative="1" as="geometry">
            <mxPoint x="764" y="454" as="sourcePoint" />
            <mxPoint x="764" y="470" as="targetPoint" />
          </mxGeometry>
        </mxCell>
        <mxCell id="B_dzTYNz8ej_TZ3mgmEH-23" value="" style="ellipse;whiteSpace=wrap;html=1;aspect=fixed;fillColor=#FFFFFF;rotation=120;strokeColor=#000000;" vertex="1" parent="1">
          <mxGeometry x="760" y="449" width="10" height="10" as="geometry" />
        </mxCell>
        <mxCell id="B_dzTYNz8ej_TZ3mgmEH-24" value="&lt;font style=&quot;font-size: 6px;&quot;&gt;User Profiles&lt;/font&gt;" style="text;html=1;align=center;verticalAlign=middle;whiteSpace=wrap;rounded=0;" vertex="1" parent="1">
          <mxGeometry x="770" y="440" width="44" height="20" as="geometry" />
        </mxCell>
        <mxCell id="L8NSSJwV17tFGSihtROY-2" value="" style="endArrow=none;html=1;rounded=0;entryX=0.43;entryY=1.032;entryDx=0;entryDy=0;entryPerimeter=0;" parent="1" edge="1" target="L8NSSJwV17tFGSihtROY-7">
          <mxGeometry width="50" height="50" relative="1" as="geometry">
            <mxPoint x="1240" y="291.57" as="sourcePoint" />
            <mxPoint x="1300" y="231.65516033107082" as="targetPoint" />
          </mxGeometry>
        </mxCell>
        <mxCell id="L8NSSJwV17tFGSihtROY-3" value="" style="endArrow=none;html=1;rounded=0;exitX=0.438;exitY=1.048;exitDx=0;exitDy=0;exitPerimeter=0;" parent="1" edge="1" source="L8NSSJwV17tFGSihtROY-7">
          <mxGeometry width="50" height="50" relative="1" as="geometry">
            <mxPoint x="1300" y="231.65516033107082" as="sourcePoint" />
            <mxPoint x="1360" y="291.57" as="targetPoint" />
          </mxGeometry>
        </mxCell>
        <mxCell id="L8NSSJwV17tFGSihtROY-70" value="" style="group;rotation=100;" parent="1" vertex="1" connectable="0">
          <mxGeometry x="1330" y="241.56571913683948" width="20.4" height="20.371045487435914" as="geometry" />
        </mxCell>
        <mxCell id="L8NSSJwV17tFGSihtROY-71" value="" style="ellipse;whiteSpace=wrap;html=1;aspect=fixed;fillColor=#000000;rotation=100;" parent="L8NSSJwV17tFGSihtROY-70" vertex="1">
          <mxGeometry x="1" y="-1" width="11.982967933785833" height="11.982967933785833" as="geometry" />
        </mxCell>
        <mxCell id="L8NSSJwV17tFGSihtROY-72" value="" style="endArrow=classic;html=1;rounded=0;exitX=1;exitY=0;exitDx=0;exitDy=0;" parent="L8NSSJwV17tFGSihtROY-70" edge="1">
          <mxGeometry width="50" height="50" relative="1" as="geometry">
            <mxPoint x="7" y="6" as="sourcePoint" />
            <mxPoint x="19" y="22" as="targetPoint" />
          </mxGeometry>
        </mxCell>
        <mxCell id="L8NSSJwV17tFGSihtROY-76" value="" style="group;rotation=-90;" parent="1" vertex="1" connectable="0">
          <mxGeometry x="1311.5" y="268.5" width="17" height="17" as="geometry" />
        </mxCell>
        <mxCell id="L8NSSJwV17tFGSihtROY-77" value="" style="endArrow=classic;html=1;rounded=0;exitX=1;exitY=0;exitDx=0;exitDy=0;" parent="L8NSSJwV17tFGSihtROY-76" edge="1">
          <mxGeometry width="50" height="50" relative="1" as="geometry">
            <mxPoint x="13" y="14" as="sourcePoint" />
            <mxPoint as="targetPoint" />
          </mxGeometry>
        </mxCell>
        <mxCell id="L8NSSJwV17tFGSihtROY-78" value="" style="ellipse;whiteSpace=wrap;html=1;aspect=fixed;fillColor=#FFFFFF;rotation=-90;strokeColor=#000000;" parent="L8NSSJwV17tFGSihtROY-76" vertex="1">
          <mxGeometry x="7" y="7" width="10" height="10" as="geometry" />
        </mxCell>
        <mxCell id="L8NSSJwV17tFGSihtROY-80" value="&lt;font style=&quot;font-size: 6px;&quot;&gt;Login form &amp;amp; ReCapture&lt;/font&gt;" style="text;html=1;align=center;verticalAlign=middle;whiteSpace=wrap;rounded=0;" parent="1" vertex="1">
          <mxGeometry x="1270" y="260.07" width="40" height="20" as="geometry" />
        </mxCell>
        <mxCell id="B_dzTYNz8ej_TZ3mgmEH-28" value="" style="endArrow=none;html=1;rounded=0;exitX=0.5;exitY=0;exitDx=0;exitDy=0;" edge="1" parent="1" source="B_dzTYNz8ej_TZ3mgmEH-29">
          <mxGeometry width="50" height="50" relative="1" as="geometry">
            <mxPoint x="330" y="350" as="sourcePoint" />
            <mxPoint x="527" y="320" as="targetPoint" />
          </mxGeometry>
        </mxCell>
        <mxCell id="B_dzTYNz8ej_TZ3mgmEH-29" value="Comment Management" style="rounded=0;whiteSpace=wrap;html=1;" vertex="1" parent="1">
          <mxGeometry x="250" y="368.5" width="120" height="60" as="geometry" />
        </mxCell>
        <mxCell id="B_dzTYNz8ej_TZ3mgmEH-33" value="" style="endArrow=classic;html=1;rounded=0;exitX=1;exitY=0;exitDx=0;exitDy=0;" edge="1" parent="1">
          <mxGeometry width="50" height="50" relative="1" as="geometry">
            <mxPoint x="364" y="341" as="sourcePoint" />
            <mxPoint x="350" y="350" as="targetPoint" />
          </mxGeometry>
        </mxCell>
        <mxCell id="B_dzTYNz8ej_TZ3mgmEH-34" value="" style="ellipse;whiteSpace=wrap;html=1;aspect=fixed;fillColor=#FFFFFF;rotation=120;strokeColor=#000000;" vertex="1" parent="1">
          <mxGeometry x="360" y="336" width="10" height="10" as="geometry" />
        </mxCell>
        <mxCell id="B_dzTYNz8ej_TZ3mgmEH-35" value="&lt;font style=&quot;font-size: 6px;&quot;&gt;User Profiles&lt;/font&gt;" style="text;html=1;align=center;verticalAlign=middle;whiteSpace=wrap;rounded=0;" vertex="1" parent="1">
          <mxGeometry x="370" y="327" width="44" height="20" as="geometry" />
        </mxCell>
      </root>
    </mxGraphModel>
  </diagram>
</mxfile>
